<?xml version="1.0" encoding="UTF-8"?>
<svg id="SVGDoc" width="450" height="283" xmlns="http://www.w3.org/2000/svg" version="1.1" xmlns:xlink="http://www.w3.org/1999/xlink" xmlns:avocode="https://avocode.com/" viewBox="0 0 450 283"><defs><linearGradient id="LinearGradient1014" gradientUnits="userSpaceOnUse" x1="181.907958984375" y1="140.1806640625" x2="177.1300048828125" y2="234.6318359375"><stop stop-opacity="0" stop-color="#000000" offset="0"></stop><stop stop-opacity="0.019607843831181526" stop-color="#000000" offset="0.16"></stop><stop stop-opacity="1" stop-color="#000000" offset="1"></stop></linearGradient></defs><desc>Generated with Avocode.</desc><g><g transform="rotate(-9 176.5 141.5)" opacity="0.17000000178813934" clip-path="url(#clip-30F7215B-DF27-4FA2-B034-FAC6A491BE51+AF3BEAE8-EC1E-4758-8972-65EDCB472138)"><title>Path 2</title><path d="M-102.84888,239.93994v0l21.3175,-4.57715v0c0,0 -5.18127,-16.42285 7.8728,-25.6499c13.0542,-9.22705 25.37781,2.84521 25.37781,2.84521v0c0,0 -1.1366,-19.45459 13.1925,-22.51343c14.3291,-3.10474 23.16614,10.53345 23.16614,10.53345v0c0,0 5.47205,-18.75439 21.94324,-16.19556c16.4502,2.55737 17.07764,16.19556 17.07764,16.19556v0c0,0 8.86633,-14.25391 24.65491,-9.01025c15.78857,5.24341 12.34363,20.99023 12.34363,20.99023v0c0,0 15.08728,-11.89868 25.92383,-1.21582c10.90393,10.68311 4.74744,24.02051 4.74744,24.02051v0c0,0 4.25256,-2.85327 9.49695,-2.85327c5.28052,0 7.82739,4.02466 7.82739,4.02466v0c0,0 5.92822,-2.10547 11.6261,0c5.65894,2.10547 6.97852,5.69238 6.97852,5.69238v0c0,0 3.95935,-9.71704 15.06494,-9.71704c11.10559,0 13.94543,11.71899 13.94543,11.71899v0c0,0 5.82031,-11.71899 17.92322,-7.69434c12.10291,4.02466 8.66174,15.95679 8.66174,15.95679v0c0,0 7.9397,-5.05737 13.91467,-3.14136c5.97485,1.91602 10.67175,9.71313 10.67175,9.71313v0c0,0 2.14185,-19.65625 16.42383,-22.52856c14.32446,-2.87256 23.96436,10.87549 23.96436,10.87549v0c0,0 4.75366,-17.46973 21.02148,-17.46973c16.27991,0 21.25061,17.46973 21.25061,17.46973v0c0,0 13.79077,-15.21045 28.10303,-9.1958c14.31213,6.01465 11.99988,24.04346 11.99988,24.04346v0c0,0 6.26331,-6.9375 12.04602,-6.9375c5.78259,0 10.83252,1.96997 10.83252,1.96997v0c0,0 -1.14893,-11.05933 5.1106,-13.06128c6.2594,-2.00195 13.30176,1.30249 13.30176,1.30249v0c0,0 -0.91223,-7.52417 6.29871,-11.59106c7.203,-4 15.38025,4.27393 15.38025,4.27393v0c0,0 3.40881,-9.66772 12.11597,-8.27393c8.73474,1.3147 9.36609,10 9.36609,10v0c0,0 4.51855,-7.39551 13.39172,-6c8.87317,1.42285 7.802,13.46973 7.802,13.46973v0c0,0 3.41919,-7.18506 10.64111,-5.18311c7.22192,2.00195 7.22192,8.49316 7.22192,8.49316v0v-207.42969v0l-560,4.6499v0z" fill="url(#LinearGradient1014)"></path></g></g></svg>