<?xml version="1.0" encoding="utf-8"?>
<!-- Generator: Adobe Illustrator 26.0.2, SVG Export Plug-In . SVG Version: 6.00 Build 0)  -->
<svg version="1.1" id="Слой_1" xmlns="http://www.w3.org/2000/svg" xmlns:xlink="http://www.w3.org/1999/xlink" x="0px" y="0px"
	 viewBox="0 0 137.7 146.9" style="enable-background:new 0 0 137.7 146.9;" xml:space="preserve">
<style type="text/css">
	.st0{fill:#68A3DA;}
	.st1{fill:#EEC83D;}
</style>
<g>
	<g>
		<g>
			<g>
				<path class="st0" d="M69,38.5c0,0,14-16.7,14-24.4S76.7,0,69,0c-7.7,0-14,6.3-14,14.1S69,38.5,69,38.5z"/>
			</g>
			<g>
				<path class="st0" d="M69,41.4c0,0,5.8-6,9.6-12.8c3.1-5.4,4.4-11.2,4.4-14.6C83,6.3,76.7,0,69,0c-7.7,0-14,6.3-14,14.1
					c0,3.4,1.3,9.2,4.4,14.6C63.2,35.4,69,41.4,69,41.4z"/>
			</g>
			<g transform="rotate(40 96.5 31)">
				<path class="st0" d="M96.3,51.3c0,0,5.8-6,9.6-12.7c3.1-5.4,4.4-11.1,4.4-14.6c0-7.8-6.3-14-14.1-14.1c-7.7,0-14,6.3-14,14
					c0,3.4,1.3,9.2,4.4,14.6C90.5,45.2,96.3,51.3,96.3,51.3L96.3,51.3z"/>
			</g>
			<g transform="rotate(70 112 56.5)">
				<path class="st0" d="M113,76.2c0,0,5.8-6,9.6-12.7c3.1-5.3,4.4-11.1,4.4-14.6c0-7.7-6.3-14-14.1-14c-7.8,0-14,6.3-14,14
					c0,3.4,1.3,9.2,4.4,14.6C107.2,70.1,113,76.2,113,76.2z"/>
			</g>
			<g transform="rotate(110 112 91.5)">
				<path class="st0" d="M110.3,107c0,0,5.8-6,9.7-12.7c3.1-5.4,4.4-11.1,4.4-14.6c0-7.7-6.3-14-14-13.9c-7.8,0-14.1,6.3-14.1,14
					c0,3.4,1.3,9.2,4.4,14.6C104.5,100.9,110.3,107,110.3,107z"/>
			</g>
			<g transform="rotate(140 98 117)">
				<path class="st0" d="M92.8,134.2c0,0,5.8-6,9.7-12.7c3.1-5.4,4.4-11.2,4.4-14.6c0-7.8-6.3-14-14-14c-7.7,0-14,6.3-14.1,14.1
					c0,3.5,1.3,9.2,4.3,14.6C87,128.2,92.8,134.2,92.8,134.2z"/>
			</g>
			<g transform="rotate(-180 65.5 127)">
				<path class="st0" d="M63.6,148.6c0,0,5.8-6,9.6-12.7c3.1-5.4,4.4-11.2,4.4-14.6c0-7.8-6.3-14.1-14-14.1c-7.7,0-14,6.3-14,14.1
					c0,3.4,1.3,9.2,4.4,14.6C57.8,142.6,63.6,148.6,63.6,148.6z"/>
			</g>
			<g transform="rotate(-140 35.5 117)">
				<path class="st0" d="M36.2,138.3c0,0,5.8-6,9.6-12.7c3.1-5.4,4.4-11.1,4.4-14.6c0-7.8-6.3-14-14.1-14.1c-7.7,0-14,6.3-14,14
					c0,3.4,1.3,9.2,4.4,14.6C30.4,132.3,36.2,138.3,36.2,138.3L36.2,138.3z"/>
			</g>
			<g transform="rotate(-110 20 92)">
				<path class="st1" d="M19.1,112.5c0,0,5.8-6,9.6-12.7c3.1-5.3,4.4-11.1,4.4-14.6c0-7.7-6.3-14-14.1-14c-7.8-0.1-14,6.3-14,13.9
					c0,3.5,1.3,9.3,4.4,14.6C13.2,106.5,19.1,112.5,19.1,112.5z"/>
			</g>
			<g transform="rotate(-70 20 56.5)">
				<path class="st1" d="M20.7,81.8c0,0,5.8-6,9.7-12.7c3.1-5.4,4.4-11.1,4.4-14.6c0-7.7-6.3-14-14-14c-7.8,0-14.1,6.3-14.1,14
					c0,3.4,1.3,9.2,4.4,14.6C14.9,75.7,20.7,81.8,20.7,81.8z"/>
			</g>
			<g transform="rotate(-40 35.5 31)">
				<path class="st1" d="M40.4,55.7c0,0,5.8-6,9.7-12.7c3.1-5.4,4.4-11.2,4.4-14.6c0-7.8-6.3-14-14-14s-14,6.3-14.1,14.1
					c0,3.4,1.3,9.2,4.3,14.6C34.6,49.7,40.4,55.7,40.4,55.7z"/>
			</g>
		</g>
	</g>
</g>
</svg>
