<?xml version="1.0" encoding="utf-8"?>
<svg viewBox="0 0 688 366.287" xmlns="http://www.w3.org/2000/svg">
  <defs>
    <linearGradient id="LinearGradient1014" gradientUnits="userSpaceOnUse" x1="306.20849609375" y1="158.12054443359375" x2="299.4000244140625" y2="298.7381591796875">
      <stop stop-opacity="0" stop-color="#000000" offset="0"/>
      <stop stop-opacity="0.019607843831181526" stop-color="#000000" offset="0.16"/>
      <stop stop-opacity="1" stop-color="#000000" offset="1"/>
    </linearGradient>
  </defs>
  <g>
    <g transform="rotate(-1.9999996423721313 299.5 167)" opacity="0.09000000357627869" clip-path="url(#clip-C008712E-D58E-4BA0-864F-2347C02DF77F)">
      <title>Path 2</title>
      <path d="M-99.59872,306.66577v0l30.3775,-6.75006v0c0,0 -7.38342,-24.45087 11.2225,-38.18793c18.59833,-13.73132 36.15945,4.26868 36.15945,4.26868v0c0,0 -1.61957,-29 18.84055,-33.55054c20.37778,-4.55371 33,15.68225 33,15.68225v0c0,0 7.76825,-27.92187 31.22473,-24.13171c23.45648,3.82941 24.35065,24.13171 24.35065,24.13171v0c0,0 12.63446,-21.22156 35.13324,-13.41479c22.49878,7.8067 17.5896,31.28308 17.5896,31.28308v0c0,0 21.49945,-17.74744 36.9895,-1.84253c15.49011,15.90497 6.71228,35.76178 6.71228,35.76178v0c0,0 6,-4.24805 13.53796,-4.24805c7.52478,0 11.15405,5.99188 11.15405,5.99188v0c0,0 8.5033,-3.13458 16.5672,0c8.06396,3.13452 9.94434,8.47485 9.94434,8.47485v0c0,0 5.64221,-14.46674 21.46759,-14.46674c15.82544,0 19.87219,17.44733 19.87219,17.44733v0c0,0 8.29401,-17.44733 25.54065,-11.45544c17.24664,5.99188 12.34296,23.75671 12.34296,23.75671v0c0,0 11.31409,-7.5296 19.82837,-4.67694c8.51428,2.8526 15.20734,14.46082 15.20734,14.46082v0c0,0 2.99152,-29.26404 23.40393,-33.54059c20.41235,-4.27655 34.13342,16.19159 34.13342,16.19159v0c0,0 6.7724,-26.06793 30,-26.06793c23.17035,0 30.25354,26.06793 30.25354,26.06793v0c0,0 19.65192,-22.64551 40.04675,-13.69086c20.39484,8.95471 17.09979,35.83618 17.09979,35.83618v0c0,0 8.92523,-10.36884 17.16559,-10.36884c8.2403,0 15.43433,2.93317 15.43433,2.93317v0c0,0 -1.63507,-16.46527 7.28467,-19.4458c8.91974,-2.98059 18.95502,1.93921 18.95502,1.93921v0c0,0 -1.23962,-11.2019 8.97559,-17.23645c10.26428,-6.03455 21.91699,6.34253 21.91699,6.34253v0c0,0 4.8678,-14.39331 17.26526,-12.37708c12.44702,2.01624 13.34668,14.88257 13.34668,14.88257v0c0,0 6.43884,-10.94598 19.08325,-8.84802c12.64429,2.09796 11.1178,20.03339 11.1178,20.03339v0c0,0 4.87231,-10.69727 15.16357,-7.71674c10.29126,2.98059 10.29126,12.64484 10.29126,12.64484v0v-308.78278v0l-798.00009,6.87354v0z" fill="url(#LinearGradient1014)"/>
    </g>
  </g>
</svg>